<?xml version="1.0" encoding="UTF-8" standalone="no"?>
<!-- Created with Inkscape (http://www.inkscape.org/) -->

<svg
   xmlns:dc="http://purl.org/dc/elements/1.1/"
   xmlns:cc="http://creativecommons.org/ns#"
   xmlns:rdf="http://www.w3.org/1999/02/22-rdf-syntax-ns#"
   xmlns:svg="http://www.w3.org/2000/svg"
   xmlns="http://www.w3.org/2000/svg"
   xmlns:xlink="http://www.w3.org/1999/xlink"
   xmlns:sodipodi="http://sodipodi.sourceforge.net/DTD/sodipodi-0.dtd"
   xmlns:inkscape="http://www.inkscape.org/namespaces/inkscape"
   width="960"
   height="540"
   id="svg2"
   version="1.1"
   inkscape:version="0.48.5 r10040"
   sodipodi:docname="New document 1">
  <defs
     id="defs4">
    <linearGradient
       id="linearGradient3776">
      <stop
         style="stop-color:#6ff7d3;stop-opacity:1;"
         offset="0"
         id="stop3778" />
      <stop
         id="stop3784"
         offset="0.69444442"
         style="stop-color:#b7fbe9;stop-opacity:0.85714287;" />
      <stop
         style="stop-color:#ffffff;stop-opacity:0;"
         offset="1"
         id="stop3780" />
    </linearGradient>
    <radialGradient
       inkscape:collect="always"
       xlink:href="#linearGradient3776"
       id="radialGradient3849"
       gradientUnits="userSpaceOnUse"
       cx="109.60155"
       cy="106.13948"
       fx="109.60155"
       fy="106.13948"
       r="122.71323" />
  </defs>
  <sodipodi:namedview
     id="base"
     pagecolor="#ffffff"
     bordercolor="#666666"
     borderopacity="1.0"
     inkscape:pageopacity="0.0"
     inkscape:pageshadow="2"
     inkscape:zoom="0.49497475"
     inkscape:cx="157.60767"
     inkscape:cy="329.98423"
     inkscape:document-units="px"
     inkscape:current-layer="layer1"
     showgrid="false"
     inkscape:snap-page="true"
     inkscape:snap-global="true"
     inkscape:window-width="1536"
     inkscape:window-height="803"
     inkscape:window-x="-8"
     inkscape:window-y="-8"
     inkscape:window-maximized="1">
    <inkscape:grid
       type="xygrid"
       id="grid4052"
       empspacing="5"
       visible="true"
       enabled="true"
       snapvisiblegridlinesonly="true" />
  </sodipodi:namedview>
  <metadata
     id="metadata7">
    <rdf:RDF>
      <cc:Work
         rdf:about="">
        <dc:format>image/svg+xml</dc:format>
        <dc:type
           rdf:resource="http://purl.org/dc/dcmitype/StillImage" />
        <dc:title></dc:title>
      </cc:Work>
    </rdf:RDF>
  </metadata>
  <g
     inkscape:label="Layer 1"
     inkscape:groupmode="layer"
     id="layer1"
     transform="translate(0,-512.36218)"
     style="display:inline">
    <rect
       style="fill:#0f5f5f;fill-opacity:1;stroke:#b4fefe;stroke-width:10;stroke-miterlimit:4;stroke-opacity:1;stroke-dasharray:none"
       id="rect4173"
       width="960"
       height="540"
       x="0"
       y="0"
       transform="translate(0,512.36218)" />
    <path
       id="path4059"
       d="m 0,512.36218 0,540.00012 236.3125,0 c 1.22128,-4.9245 1.875,-10.0533 1.875,-15.3438 0,-35.9282 -29.84736,-65.03132 -66.65625,-65.03132 -2.50743,0 -4.97073,0.14305 -7.40625,0.40625 -3.86944,-33.9766 -20.57837,-64.15748 -45.3125,-85.8125 3.84221,-6.21 6.0625,-13.49757 6.0625,-21.28125 0,-18.73613 -12.80608,-34.52491 -30.34375,-39.53125 0.12181,-1.95771 0.1875,-3.91785 0.1875,-5.90625 0,-21.72146 -7.39631,-41.71792 -19.78125,-57.625 15.38335,-11.90052 25.3125,-30.5459 25.3125,-51.5 0,-4.00788 -0.4,-7.91111 -1.09375,-11.71875 17.32342,-6.7429 32.69198,-17.33894 45.0625,-30.78125 2.66838,0.31721 5.36887,0.5 8.125,0.5 36.80887,0 66.65625,-29.13432 66.65625,-65.0625 0,-11.13847 -2.85185,-21.61558 -7.90625,-30.78125 17.0061,-11.78791 28.125,-31.15347 28.125,-53.0625 0,-2.52692 -0.18142,-5.01683 -0.46875,-7.46875 l -238.75,0 z"
       style="fill:#041e20;fill-opacity:1;fill-rule:evenodd;stroke:#b4fefe;stroke-width:10;stroke-miterlimit:4;stroke-opacity:1;stroke-dasharray:none"
       inkscape:connector-curvature="0" />
    <path
       style="fill:#041e20;fill-opacity:1;stroke:#b4fefe;stroke-width:10;stroke-miterlimit:4;stroke-opacity:1;stroke-dasharray:none"
       d="M 729.40625 0 C 721.04659 11.148491 716.09375 24.990068 716.09375 40 C 716.09375 53.076124 719.87354 65.268013 726.375 75.5625 C 722.32099 82.787132 720 91.126169 720 100 C 720 115.08208 726.68989 128.58258 737.25 137.75 C 729.26052 150.50196 723.39169 164.72351 720.125 179.90625 C 707.9127 189.02266 700 203.58831 700 220 C 700 240.76984 712.65987 258.57129 730.6875 266.125 C 737.32808 279.61224 746.18778 291.80652 756.8125 302.21875 C 755.51565 305.7606 754.8125 309.57138 754.8125 313.5625 C 754.8125 325.55085 761.19442 336.05422 770.75 341.84375 C 769.80162 344.73803 769.23354 347.81511 769.125 351 C 767.31603 350.69317 765.45883 350.53125 763.5625 350.53125 C 745.31738 350.53125 730.53125 365.31738 730.53125 383.5625 C 730.53125 401.80762 745.31738 416.59375 763.5625 416.59375 C 766.864 416.59375 770.05305 416.09043 773.0625 415.1875 C 768.33546 426.07481 765.71875 438.09235 765.71875 450.71875 C 765.71875 455.83071 766.17501 460.84169 767 465.71875 C 754.59244 474.40208 744.92629 486.71138 739.59375 501.15625 C 731.38432 496.84716 722.07123 494.375 712.15625 494.375 C 700.59546 494.375 689.80163 497.70702 680.6875 503.4375 C 675.56397 500.77383 669.73624 499.25 663.5625 499.25 C 648.31143 499.25 635.19728 508.45258 629.46875 521.59375 C 628.70677 521.50545 627.94191 521.46875 627.15625 521.46875 C 616.6177 521.46875 607.98919 529.64874 607.25 540 L 855 540 L 960 540 L 960 0 L 729.40625 0 z "
       transform="translate(0,512.36218)"
       id="path4065" />
  </g>
</svg>
