<?xml version="1.0" encoding="UTF-8" standalone="no"?>
<!-- Created with Inkscape (http://www.inkscape.org/) -->

<svg
   xmlns:dc="http://purl.org/dc/elements/1.1/"
   xmlns:cc="http://creativecommons.org/ns#"
   xmlns:rdf="http://www.w3.org/1999/02/22-rdf-syntax-ns#"
   xmlns:svg="http://www.w3.org/2000/svg"
   xmlns="http://www.w3.org/2000/svg"
   xmlns:sodipodi="http://sodipodi.sourceforge.net/DTD/sodipodi-0.dtd"
   xmlns:inkscape="http://www.inkscape.org/namespaces/inkscape"
   id="svg4798"
   version="1.1"
   inkscape:version="0.48.5 r10040"
   width="128.92337"
   height="72.869438"
   sodipodi:docname="30.svg">
  <metadata
     id="metadata4804">
    <rdf:RDF>
      <cc:Work
         rdf:about="">
        <dc:format>image/svg+xml</dc:format>
        <dc:type
           rdf:resource="http://purl.org/dc/dcmitype/StillImage" />
        <dc:title></dc:title>
      </cc:Work>
    </rdf:RDF>
  </metadata>
  <defs
     id="defs4802" />
  <sodipodi:namedview
     pagecolor="#ffffff"
     bordercolor="#666666"
     borderopacity="1"
     objecttolerance="10"
     gridtolerance="10"
     guidetolerance="10"
     inkscape:pageopacity="0"
     inkscape:pageshadow="2"
     inkscape:window-width="752"
     inkscape:window-height="787"
     id="namedview4800"
     showgrid="false"
     inkscape:snap-global="true"
     inkscape:snap-bbox="true"
     inkscape:bbox-nodes="true"
     inkscape:snap-bbox-edge-midpoints="true"
     inkscape:bbox-paths="true"
     inkscape:zoom="1.0150843"
     inkscape:cx="-60.579084"
     inkscape:cy="35.951626"
     inkscape:window-x="0"
     inkscape:window-y="0"
     inkscape:window-maximized="0"
     inkscape:current-layer="layer2"
     inkscape:snap-page="true"
     fit-margin-top="0"
     fit-margin-left="0"
     fit-margin-right="0"
     fit-margin-bottom="0" />
  <g
     inkscape:groupmode="layer"
     id="layer1"
     inkscape:label="Background"
     style="display:inline"
     transform="translate(-730.8448,-1043.289)" />
  <g
     inkscape:groupmode="layer"
     id="layer2"
     inkscape:label="Regions"
     style="display:inline"
     transform="translate(-730.8448,-1043.289)">
    <g
       id="g5003"
       style="fill:#ffffff;stroke:#000000;stroke-width:6;stroke-opacity:1"
       transform="matrix(0.42597292,0,0,0.37965192,-0.07148064,882.06748)">
      <path
         sodipodi:nodetypes="ccccccccccccccccccccccc"
         inkscape:connector-curvature="0"
         id="path4956"
         d="m 1720.7738,461.21572 55.2926,6.70477 35.5266,-14.01906 19.3306,13.32246 15.6735,-39.532 28.9959,0.60953 49.2844,39.532 7.9238,-10.97144 6.5306,5.83402 0.4354,20.54967 15.5864,9.05578 -21.9429,39.61908 -17.9373,-2.69932 -14.8028,36.31023 31.434,33.00138 -19.3306,14.10613 -46.5851,-48.15241 -23.9455,13.93198 -14.8898,-18.63403 -62.0844,-3.22177 -34.7429,-49.63268 3.3959,-16.37008 z"
         style="fill:#ffffff;stroke:#000000;stroke-width:6;stroke-linecap:butt;stroke-linejoin:miter;stroke-opacity:1" />
      <path
         sodipodi:nodetypes="cccccccscc"
         inkscape:connector-curvature="0"
         id="path4958"
         d="m 1960.9209,591.03453 c 0.1231,0 26.8451,-21.18051 26.8451,-21.18051 l 7.6348,-24.87478 -10.0977,-18.47138 c 0,0 21.1805,4.9257 22.4119,5.91084 1.2315,0.98514 6.896,18.71766 6.896,18.71766 l -11.5754,1.97028 c 0,0 10.8366,24.6285 8.8663,25.61364 -1.9703,0.98514 -10.8366,13.54567 -10.8366,13.54567 z"
         style="fill:#ffffff;stroke:#000000;stroke-width:6;stroke-linecap:butt;stroke-linejoin:miter;stroke-opacity:1" />
    </g>
  </g>
</svg>
