<?xml version="1.0" encoding="UTF-8" standalone="no"?>
<!-- Created with Inkscape (http://www.inkscape.org/) -->

<svg
   xmlns:dc="http://purl.org/dc/elements/1.1/"
   xmlns:cc="http://creativecommons.org/ns#"
   xmlns:rdf="http://www.w3.org/1999/02/22-rdf-syntax-ns#"
   xmlns:svg="http://www.w3.org/2000/svg"
   xmlns="http://www.w3.org/2000/svg"
   xmlns:sodipodi="http://sodipodi.sourceforge.net/DTD/sodipodi-0.dtd"
   xmlns:inkscape="http://www.inkscape.org/namespaces/inkscape"
   width="70"
   height="70"
   id="svg4087"
   version="1.1"
   inkscape:version="0.48.5 r10040"
   sodipodi:docname="btn_play.svg">
  <defs
     id="defs4089" />
  <sodipodi:namedview
     id="base"
     pagecolor="#ffffff"
     bordercolor="#666666"
     borderopacity="1.0"
     inkscape:pageopacity="0.0"
     inkscape:pageshadow="2"
     inkscape:zoom="3.959798"
     inkscape:cx="18.705133"
     inkscape:cy="30.776154"
     inkscape:document-units="px"
     inkscape:current-layer="layer1"
     showgrid="false"
     inkscape:snap-page="true"
     inkscape:window-width="1536"
     inkscape:window-height="803"
     inkscape:window-x="-8"
     inkscape:window-y="-8"
     inkscape:window-maximized="1"
     inkscape:showpageshadow="false"
     fit-margin-top="0"
     fit-margin-left="0"
     fit-margin-right="0"
     fit-margin-bottom="0" />
  <metadata
     id="metadata4092">
    <rdf:RDF>
      <cc:Work
         rdf:about="">
        <dc:format>image/svg+xml</dc:format>
        <dc:type
           rdf:resource="http://purl.org/dc/dcmitype/StillImage" />
        <dc:title></dc:title>
      </cc:Work>
    </rdf:RDF>
  </metadata>
  <g
     inkscape:label="Layer 1"
     inkscape:groupmode="layer"
     id="layer1"
     transform="translate(-475.61322,-729.80251)">
    <path
       style="fill:#ffffff;fill-opacity:1;stroke:none"
       d="M 35 0 C 15.670033 0 8.5000517e-017 15.697666 0 35.0625 C -2.3129646e-018 54.427334 15.670033 70.125 35 70.125 C 54.329967 70.125 70 54.427334 70 35.0625 C 70 15.697666 54.329967 -1.3522017e-014 35 0 z M 34.84375 4.84375 C 51.580506 4.84375 65.15625 18.419494 65.15625 35.15625 C 65.15625 51.893006 51.580506 65.46875 34.84375 65.46875 C 18.106994 65.46875 4.53125 51.893006 4.53125 35.15625 C 4.53125 18.419494 18.106994 4.84375 34.84375 4.84375 z "
       transform="translate(475.61322,729.80251)"
       id="path4641" />
    <path
       style="fill:#ffffff;fill-opacity:1;stroke:none"
       d="m 496.35634,747.98795 33.92857,16.96429 -33.92857,16.96428 z"
       id="rect4681"
       inkscape:connector-curvature="0"
       sodipodi:nodetypes="cccc" />
  </g>
</svg>
