<?xml version="1.0" encoding="UTF-8" standalone="no"?>
<!-- Created with Inkscape (http://www.inkscape.org/) -->

<svg
   xmlns:dc="http://purl.org/dc/elements/1.1/"
   xmlns:cc="http://creativecommons.org/ns#"
   xmlns:rdf="http://www.w3.org/1999/02/22-rdf-syntax-ns#"
   xmlns:svg="http://www.w3.org/2000/svg"
   xmlns="http://www.w3.org/2000/svg"
   xmlns:sodipodi="http://sodipodi.sourceforge.net/DTD/sodipodi-0.dtd"
   xmlns:inkscape="http://www.inkscape.org/namespaces/inkscape"
   id="svg4798"
   version="1.1"
   inkscape:version="0.48.5 r10040"
   width="2254"
   height="1422"
   sodipodi:docname="17.svg">
  <metadata
     id="metadata4804">
    <rdf:RDF>
      <cc:Work
         rdf:about="">
        <dc:format>image/svg+xml</dc:format>
        <dc:type
           rdf:resource="http://purl.org/dc/dcmitype/StillImage" />
        <dc:title />
      </cc:Work>
    </rdf:RDF>
  </metadata>
  <defs
     id="defs4802" />
  <sodipodi:namedview
     pagecolor="#ffffff"
     bordercolor="#666666"
     borderopacity="1"
     objecttolerance="10"
     gridtolerance="10"
     guidetolerance="10"
     inkscape:pageopacity="0"
     inkscape:pageshadow="2"
     inkscape:window-width="752"
     inkscape:window-height="787"
     id="namedview4800"
     showgrid="false"
     inkscape:snap-global="true"
     inkscape:snap-bbox="true"
     inkscape:bbox-nodes="true"
     inkscape:snap-bbox-edge-midpoints="true"
     inkscape:bbox-paths="true"
     inkscape:zoom="1.435546"
     inkscape:cx="1137.8263"
     inkscape:cy="752.58894"
     inkscape:window-x="768"
     inkscape:window-y="0"
     inkscape:window-maximized="0"
     inkscape:current-layer="layer2"
     inkscape:snap-page="true" />
  <g
     inkscape:groupmode="layer"
     id="layer1"
     inkscape:label="Background"
     style="display:inline" />
  <g
     inkscape:groupmode="layer"
     id="layer2"
     inkscape:label="Regions"
     style="display:inline">
    <g
       id="g3631">
      <g
         style="fill:#ffffff;stroke:#000000;stroke-width:6;stroke-opacity:1"
         id="g4974">
        <path
           style="fill:#ffffff;stroke:#000000;stroke-width:6;stroke-linecap:butt;stroke-linejoin:miter;stroke-opacity:1"
           d="m 1084.2565,639.19678 7.2272,8.75104 -4.2231,7.27074 -13.0613,-0.91428 -11.3197,-4.00545 0,-7.4449 z"
           id="path4910"
           inkscape:connector-curvature="0"
           sodipodi:nodetypes="ccccccc" />
      </g>
      <g
         style="fill:#ffffff;stroke:#000000;stroke-width:6;stroke-opacity:1"
         id="g4980">
        <g
           id="g3094">
          <path
             inkscape:connector-curvature="0"
             id="path4896"
             d="m 1032.3598,598.79616 -1.3932,12.53878 7.3143,-1.0449 3.1347,-12.19048 z"
             style="display:inline;fill:#ffffff;stroke:#000000;stroke-width:6;stroke-linecap:butt;stroke-linejoin:miter;stroke-opacity:1" />
          <path
             sodipodi:nodetypes="ccccc"
             inkscape:connector-curvature="0"
             id="path4902"
             d="m 1031.1779,613.99458 -2.0476,20.99998 9.5412,-0.12676 0.102,-18.92045 z"
             style="display:inline;fill:#ffffff;stroke:#000000;stroke-width:6;stroke-linecap:butt;stroke-linejoin:miter;stroke-opacity:1" />
          <path
             id="path4924"
             style="fill:#ffffff;stroke:#000000;stroke-width:6;stroke-linecap:butt;stroke-linejoin:miter;stroke-opacity:1"
             d="m 1141.5517,665.1451 c 1.9157,0.17415 25.4259,3.65715 25.4259,3.65715 l -1.0449,8.18504 -17.9374,-2.0898 -11.3198,-6.61769 z m -109.9923,-146.16085 -19.4009,29.82881 17.7632,30.99866 c 1.3932,-1.0449 12.8871,-7.31429 12.8871,-7.31429 l 19.5048,28.21226 24.0327,9.05579 0.3483,24.72926 6.4435,7.14014 9.2299,-26.99321 9.4041,10.79729 5.0504,-4.35375 -5.8341,-15.06396 -43.9728,-25.86124 -2.6122,-16.71837 8.5682,-9.59466 7.4805,20.93274 18.862,2.69676 21.1328,28.51201 2.1755,17.70204 10.5347,13.52243 -0.1232,11.45225 9.2358,6.15712 0.7388,-8.1274 7.758,0.49257 -18.3482,-26.35249 4.463,-4.49183 5.682,6.30546 9.6226,-2.88841 -4.7267,-5.61717 10.5727,-5.37602 15.516,-21.1805 10.0361,-36.88117 -20.1954,-46.91729 -12.6221,-0.49257 -21.3036,39.77502 -22.7198,-1.90871 -1.1083,-33.12532 -19.7644,-6.28027 -21.2102,24.86247 z"
             inkscape:connector-curvature="0"
             sodipodi:nodetypes="cccccccccccccccccccccccccccccccccccccccccccccc" />
        </g>
      </g>
    </g>
  </g>
</svg>
