<?xml version="1.0" encoding="UTF-8" standalone="no"?>
<!-- Created with Inkscape (http://www.inkscape.org/) -->

<svg
   xmlns:dc="http://purl.org/dc/elements/1.1/"
   xmlns:cc="http://creativecommons.org/ns#"
   xmlns:rdf="http://www.w3.org/1999/02/22-rdf-syntax-ns#"
   xmlns:svg="http://www.w3.org/2000/svg"
   xmlns="http://www.w3.org/2000/svg"
   xmlns:sodipodi="http://sodipodi.sourceforge.net/DTD/sodipodi-0.dtd"
   xmlns:inkscape="http://www.inkscape.org/namespaces/inkscape"
   id="svg4798"
   version="1.1"
   inkscape:version="0.48.5 r10040"
   width="2254"
   height="1422"
   sodipodi:docname="19.svg">
  <metadata
     id="metadata4804">
    <rdf:RDF>
      <cc:Work
         rdf:about="">
        <dc:format>image/svg+xml</dc:format>
        <dc:type
           rdf:resource="http://purl.org/dc/dcmitype/StillImage" />
        <dc:title></dc:title>
      </cc:Work>
    </rdf:RDF>
  </metadata>
  <defs
     id="defs4802" />
  <sodipodi:namedview
     pagecolor="#ffffff"
     bordercolor="#666666"
     borderopacity="1"
     objecttolerance="10"
     gridtolerance="10"
     guidetolerance="10"
     inkscape:pageopacity="0"
     inkscape:pageshadow="2"
     inkscape:window-width="752"
     inkscape:window-height="787"
     id="namedview4800"
     showgrid="false"
     inkscape:snap-global="true"
     inkscape:snap-bbox="true"
     inkscape:bbox-nodes="true"
     inkscape:snap-bbox-edge-midpoints="true"
     inkscape:bbox-paths="true"
     inkscape:zoom="0.35888649"
     inkscape:cx="985.22071"
     inkscape:cy="641.21604"
     inkscape:window-x="768"
     inkscape:window-y="0"
     inkscape:window-maximized="0"
     inkscape:current-layer="layer2"
     inkscape:snap-page="true" />
  <g
     inkscape:groupmode="layer"
     id="layer1"
     inkscape:label="Background"
     style="display:inline" />
  <g
     inkscape:groupmode="layer"
     id="layer2"
     inkscape:label="Regions"
     style="display:inline">
    <path
       style="fill:#ffffff;stroke:#000000;stroke-width:6;stroke-linecap:butt;stroke-linejoin:miter;stroke-opacity:1"
       d="m 1184.1381,549.90494 9.1424,-11.84643 19.8595,1.34581 1.0871,14.64008 21.8721,-0.61934 -10.7419,-16.96891 43.9582,-5.89334 -1.5673,32.45287 23.0313,20.13773 -8.5765,22.09351 13.9909,-3.40189 22.6621,25.48046 14.7421,-6.16822 1.2489,-14.32252 -22.3944,-38.95102 15.0252,-32.47429 -11.436,-33.62996 10.2028,-31.91716 114.5224,-10.59025 6.4035,-42.11473 -15.2697,-38.91302 12.1947,-69.58638 -17.3667,-18.69079 1.2511,-23.5332 30.7011,-12.73256 3.6975,-28.33846 -44.2697,-10.65183 -12.5606,19.82594 -56.8301,0.0616 -30.7478,31.17799 -10.1971,-4.76393 -5.1105,-29.30791 -11.1443,4.67942 5.6645,35.46503 -25.1211,16.74738 6.6497,16.00852 -39.6519,-3.94056 -31.5244,-49.01071 7.1423,-7.38855 29.3079,16.00853 22.9045,-13.05311 -58.8621,-48.02556 -20.8112,7.88111 -11.8005,38.57967 16.8046,3.25761 -8.1423,27.65734 15.2696,24.65838 -16.3393,57.32932 -34.3356,22.14859 3.3908,22.01624 -16.7449,-2.31089 -8.6622,32.91512 20.5087,10.11775 3.4779,58.92655 13.2993,0.49257 z"
       id="path4928"
       inkscape:connector-curvature="0"
       sodipodi:nodetypes="cccccccccccccccccccccccccccccccccccccccccccccccccccccccc" />
  </g>
</svg>
