<!-- Created with Inkscape (http://www.inkscape.org/) -->
<svg id="svg4798" xmlns:rdf="http://www.w3.org/1999/02/22-rdf-syntax-ns#" xmlns="http://www.w3.org/2000/svg" height="349.84" width="583.84" version="1.1" xmlns:cc="http://creativecommons.org/ns#" xmlns:dc="http://purl.org/dc/elements/1.1/">
<metadata id="metadata4804">
<rdf:RDF>
<cc:Work rdf:about="">
<dc:format>image/svg+xml</dc:format>
<dc:type rdf:resource="http://purl.org/dc/dcmitype/StillImage"/>
<dc:title/>
</cc:Work>
</rdf:RDF>
</metadata>
<g id="layer2" transform="translate(-496.28125,-29.0625)" stroke="#000" stroke-width="6">
<g id="g5063" stroke-linejoin="miter" stroke-linecap="butt" fill="#FFF">
<path id="path4842" d="m517.4,337.31,4.3537-25.687,108.67-61.301-11.842-16.022-25.774,14.629-33.437-45.976,31.042-38.008-12.582-0.13061-75.059,77.845-3.3959,93.344z"/>
<path id="path4846" d="m603.03,231.09,47.164-13.423s39.898,36.45,37.435,37.928c-2.4628,1.4777-40.614,27.619-40.614,27.619l62.596,24.623,19.201-48.68,10.622,27.897,15.469-17.747-72.691-79.717-54.06,14.038-4.1868-22.904-14.408,0.12314z"/>
<path id="path4848" d="m720.98,166.73,57.818,75.233-16.022,88.468,68.963,43.886,25.774-78.716,154.65-51.548s8.3591-110.06,14.628-112.15c6.2694-2.0898,47.369-45.279,47.369-45.279l-36.223-6.966-47.369,26.471-19.505-32.044,35.527,15.325,22.291-18.808-109.37-38.313-121.21,56.425-36.223-10.449-70.357,25.774-34.133,41.099,33.437,26.471z"/>
</g>
<g id="g6228" fill="#0F0"></g>
</g>
</svg>
