<?xml version="1.0" encoding="UTF-8" standalone="no"?>
<!-- Created with Inkscape (http://www.inkscape.org/) -->

<svg
   xmlns:dc="http://purl.org/dc/elements/1.1/"
   xmlns:cc="http://creativecommons.org/ns#"
   xmlns:rdf="http://www.w3.org/1999/02/22-rdf-syntax-ns#"
   xmlns:svg="http://www.w3.org/2000/svg"
   xmlns="http://www.w3.org/2000/svg"
   xmlns:sodipodi="http://sodipodi.sourceforge.net/DTD/sodipodi-0.dtd"
   xmlns:inkscape="http://www.inkscape.org/namespaces/inkscape"
   id="svg4798"
   version="1.1"
   inkscape:version="0.48.5 r10040"
   width="131"
   height="159.40701"
   sodipodi:docname="26.svg">
  <metadata
     id="metadata4804">
    <rdf:RDF>
      <cc:Work
         rdf:about="">
        <dc:format>image/svg+xml</dc:format>
        <dc:type
           rdf:resource="http://purl.org/dc/dcmitype/StillImage" />
        <dc:title></dc:title>
      </cc:Work>
    </rdf:RDF>
  </metadata>
  <defs
     id="defs4802" />
  <sodipodi:namedview
     pagecolor="#ffffff"
     bordercolor="#666666"
     borderopacity="1"
     objecttolerance="10"
     gridtolerance="10"
     guidetolerance="10"
     inkscape:pageopacity="0"
     inkscape:pageshadow="2"
     inkscape:window-width="752"
     inkscape:window-height="787"
     id="namedview4800"
     showgrid="false"
     inkscape:snap-global="true"
     inkscape:snap-bbox="true"
     inkscape:bbox-nodes="true"
     inkscape:snap-bbox-edge-midpoints="true"
     inkscape:bbox-paths="true"
     inkscape:zoom="1.0150843"
     inkscape:cx="-69.840361"
     inkscape:cy="-63.842965"
     inkscape:window-x="0"
     inkscape:window-y="0"
     inkscape:window-maximized="0"
     inkscape:current-layer="layer2"
     inkscape:snap-page="true"
     fit-margin-top="0"
     fit-margin-left="0"
     fit-margin-right="0"
     fit-margin-bottom="0" />
  <g
     inkscape:groupmode="layer"
     id="layer1"
     inkscape:label="Background"
     style="display:inline"
     transform="translate(-636.59375,-938.90549)" />
  <g
     inkscape:groupmode="layer"
     id="layer2"
     inkscape:label="Regions"
     style="display:inline"
     transform="translate(-636.59375,-938.90549)">
    <path
       style="fill:#ffffff;stroke:#000000;stroke-width:2.41287613;stroke-linecap:butt;stroke-linejoin:miter;stroke-opacity:1"
       d="m 647.51279,985.75442 7.05867,-1.60089 -2.61531,-5.17943 -12.56599,-0.55162 -1.47408,-12.05048 3.82337,-1.41858 21.97194,9.24346 0.86259,-5.49396 -8.7436,-8.39255 1.22816,-3.71741 8.63345,1.09934 2.81947,-6.72302 14.57616,-5.49385 34.90234,-5.36161 c -0.0974,0.0166 16.05134,0.74802 16.05134,0.74802 l 0.93829,8.61828 -24.07109,6.43563 6.55539,4.28978 22.81962,-4.66379 23.81474,1.49604 2.20309,6.91919 -11.00812,22.281 -7.16248,-7.07216 -9.09869,6.23728 11.21799,10.06425 -4.82589,4.95566 4.93081,19.0745 -18.65395,11.8408 0.80641,25.8341 5.59098,11.1749 -1.48145,6.26 14.86577,18.8741 -7.31749,3.5531 -31.73553,-8.5321 1.39007,-9.3035 -8.70761,-14.3293 -8.15678,-1.1921 5.24551,-8.088 -20.16905,-10.9866 -0.23607,-7.9477 -19.43472,-26.3677 -1.88838,-13.81501 -11.24717,-5.7818 z"
       id="path4954"
       inkscape:connector-curvature="0"
       sodipodi:nodetypes="cccccccccccccccccccccccccccccccccccccccccccc" />
  </g>
</svg>
