<?xml version="1.0" encoding="UTF-8" standalone="no"?>
<!-- Created with Inkscape (http://www.inkscape.org/) -->

<svg
   xmlns:dc="http://purl.org/dc/elements/1.1/"
   xmlns:cc="http://creativecommons.org/ns#"
   xmlns:rdf="http://www.w3.org/1999/02/22-rdf-syntax-ns#"
   xmlns:svg="http://www.w3.org/2000/svg"
   xmlns="http://www.w3.org/2000/svg"
   xmlns:sodipodi="http://sodipodi.sourceforge.net/DTD/sodipodi-0.dtd"
   xmlns:inkscape="http://www.inkscape.org/namespaces/inkscape"
   id="svg4798"
   version="1.1"
   inkscape:version="0.48.5 r10040"
   width="148.91747"
   height="107.82114"
   sodipodi:docname="28.svg">
  <metadata
     id="metadata4804">
    <rdf:RDF>
      <cc:Work
         rdf:about="">
        <dc:format>image/svg+xml</dc:format>
        <dc:type
           rdf:resource="http://purl.org/dc/dcmitype/StillImage" />
        <dc:title></dc:title>
      </cc:Work>
    </rdf:RDF>
  </metadata>
  <defs
     id="defs4802" />
  <sodipodi:namedview
     pagecolor="#ffffff"
     bordercolor="#666666"
     borderopacity="1"
     objecttolerance="10"
     gridtolerance="10"
     guidetolerance="10"
     inkscape:pageopacity="0"
     inkscape:pageshadow="2"
     inkscape:window-width="752"
     inkscape:window-height="787"
     id="namedview4800"
     showgrid="false"
     inkscape:snap-global="true"
     inkscape:snap-bbox="true"
     inkscape:bbox-nodes="true"
     inkscape:snap-bbox-edge-midpoints="true"
     inkscape:bbox-paths="true"
     inkscape:zoom="1.435546"
     inkscape:cx="-62.047753"
     inkscape:cy="13.215428"
     inkscape:window-x="0"
     inkscape:window-y="0"
     inkscape:window-maximized="0"
     inkscape:current-layer="layer2"
     inkscape:snap-page="true"
     fit-margin-top="0"
     fit-margin-left="0"
     fit-margin-right="0"
     fit-margin-bottom="0" />
  <g
     inkscape:groupmode="layer"
     id="layer1"
     inkscape:label="Background"
     style="display:inline"
     transform="translate(-797.58944,-962.6486)" />
  <g
     inkscape:groupmode="layer"
     id="layer2"
     inkscape:label="Regions"
     style="display:inline"
     transform="translate(-797.58944,-962.6486)">
    <g
       id="g5007"
       style="fill:#ffffff;stroke:#000000;stroke-width:6;stroke-opacity:1"
       transform="matrix(0.42597292,0,0,0.37965192,-0.07148064,882.06748)">
      <path
         sodipodi:nodetypes="cccccccccccccccccccccccccccccccccccccccccccccccccccccc"
         inkscape:connector-curvature="0"
         id="path4966"
         d="m 1955.586,491.29787 3.8572,-41.8772 -17.9788,-25.49049 4.1869,-12.19111 -8.4969,-8.9894 -7.758,7.75798 -12.4374,-21.79623 28.4459,-45.31643 79.0575,13.54568 -4.0637,-37.06589 22.9045,-2.09342 11.8217,13.66881 16.5011,-27.09134 18.1019,16.99366 -21.8424,15.36201 -0.4156,9.94376 -28.723,36.14233 11.3292,43.71558 18.225,-0.24629 12.1911,-25.85992 -4.8025,-50.24213 18.7176,-12.43739 28.5691,2.33971 48.395,-50.85785 -18.9639,-8.49683 4.8641,-10.77497 11.2983,8.03505 5.1412,-9.2049 27.0914,18.8408 16.0084,-13.79196 -13.6534,-6.94216 -4.0482,-16.79355 -11.9294,-2.50903 -19.318,-32.06322 -51.4736,7.51169 -11.1444,18.22508 -15.2081,-18.28665 -37.3737,-0.73886 -12.499,13.79196 -44.516,12.56053 -2.586,30.29305 11.3291,3.38642 1.3546,24.99793 -22.4119,11.88324 -20.5587,-22.46784 -51.5021,12.42864 -10.3986,51.71984 -0.3262,19.96403 -24.2042,46.92219 48.3432,38.74234 8.0042,-11.02125 7.6041,6.8344 0.4925,20.50323 z"
         style="fill:#ffffff;stroke:#000000;stroke-width:6;stroke-linecap:butt;stroke-linejoin:miter;stroke-opacity:1" />
      <path
         sodipodi:nodetypes="cccccc"
         inkscape:connector-curvature="0"
         id="path4968"
         d="m 1964.9846,418.75819 -1.8471,22.53508 31.155,30.53934 0.6157,-25.61365 -21.3036,-15.88538 z"
         style="fill:#ffffff;stroke:#000000;stroke-width:6;stroke-linecap:butt;stroke-linejoin:miter;stroke-opacity:1" />
    </g>
  </g>
</svg>
