<?xml version="1.0" encoding="UTF-8" standalone="no"?>
<!-- Created with Inkscape (http://www.inkscape.org/) -->

<svg
   xmlns:dc="http://purl.org/dc/elements/1.1/"
   xmlns:cc="http://creativecommons.org/ns#"
   xmlns:rdf="http://www.w3.org/1999/02/22-rdf-syntax-ns#"
   xmlns:svg="http://www.w3.org/2000/svg"
   xmlns="http://www.w3.org/2000/svg"
   xmlns:sodipodi="http://sodipodi.sourceforge.net/DTD/sodipodi-0.dtd"
   xmlns:inkscape="http://www.inkscape.org/namespaces/inkscape"
   id="svg4798"
   version="1.1"
   inkscape:version="0.48.5 r10040"
   width="129.45583"
   height="128.702"
   sodipodi:docname="31.svg">
  <metadata
     id="metadata4804">
    <rdf:RDF>
      <cc:Work
         rdf:about="">
        <dc:format>image/svg+xml</dc:format>
        <dc:type
           rdf:resource="http://purl.org/dc/dcmitype/StillImage" />
        <dc:title></dc:title>
      </cc:Work>
    </rdf:RDF>
  </metadata>
  <defs
     id="defs4802" />
  <sodipodi:namedview
     pagecolor="#ffffff"
     bordercolor="#666666"
     borderopacity="1"
     objecttolerance="10"
     gridtolerance="10"
     guidetolerance="10"
     inkscape:pageopacity="0"
     inkscape:pageshadow="2"
     inkscape:window-width="752"
     inkscape:window-height="787"
     id="namedview4800"
     showgrid="false"
     inkscape:snap-global="true"
     inkscape:snap-bbox="true"
     inkscape:bbox-nodes="true"
     inkscape:snap-bbox-edge-midpoints="true"
     inkscape:bbox-paths="true"
     inkscape:zoom="1.0150843"
     inkscape:cx="35.060994"
     inkscape:cy="129.01449"
     inkscape:window-x="0"
     inkscape:window-y="0"
     inkscape:window-maximized="0"
     inkscape:current-layer="layer2"
     inkscape:snap-page="true"
     fit-margin-top="0"
     fit-margin-left="0"
     fit-margin-right="0"
     fit-margin-bottom="0" />
  <g
     inkscape:groupmode="layer"
     id="layer1"
     inkscape:label="Background"
     style="display:inline"
     transform="translate(-492.19348,-1103.3808)" />
  <g
     inkscape:groupmode="layer"
     id="layer2"
     inkscape:label="Regions"
     style="display:inline"
     transform="translate(-492.19348,-1103.3808)">
    <g
       id="g4984"
       style="fill:#ffffff;stroke:#000000;stroke-width:6;stroke-opacity:1"
       transform="matrix(0.42597292,0,0,0.37965192,-0.07148064,882.06748)">
      <path
         inkscape:connector-curvature="0"
         id="path4916"
         d="m 1204.9423,670.19545 c -1.5674,0.52244 -3.8313,6.79184 -3.8313,6.79184 l 13.7578,7.83674 12.7129,-17.58913 -18.1116,-0.3483 z"
         style="fill:#ffffff;stroke:#000000;stroke-width:6;stroke-linecap:butt;stroke-linejoin:miter;stroke-opacity:1" />
      <path
         sodipodi:nodetypes="cccccccccccccscsccccccccccccccccccccc"
         inkscape:connector-curvature="0"
         id="path4940"
         d="m 1158.9325,609.31681 16.5856,53.38665 20.688,-10.09769 49.0107,5.91084 -6.1571,68.22093 -21.9194,3.94056 5.172,12.80682 29.5542,21.42679 23.3971,70.68379 17.9788,21.42679 8.6199,59.60096 63.5415,-45.31643 25.3674,-5.17199 c 0,0 37.9279,-57.63068 36.9427,-57.63068 -0.9851,0 -35.7113,-15.26967 -35.7113,-15.26967 0,0 -16.5011,8.37369 -18.2251,7.38855 -1.724,-0.98514 -57.8769,-54.42898 -57.8769,-54.42898 l 36.2039,-29.06162 24.3822,55.6604 59.1084,10.09768 20.4416,-30.78562 -25.6136,-46.30157 0.2463,-39.40559 -37.9279,-30.04677 c 0.053,0.0418 -17.4863,31.03191 -17.4863,31.03191 l -26.5987,-9.11255 -14.7771,-36.20389 -15.2697,6.40341 -22.6582,-25.61364 -14.2871,3.40574 -35.2162,3.24396 -0.6543,-17.10549 -34.0719,7.1397 -4.025,9.11979 -25.4493,-1.19386 -8.3665,-18.58832 z"
         style="fill:#ffffff;stroke:#000000;stroke-width:6;stroke-linecap:butt;stroke-linejoin:miter;stroke-opacity:1" />
    </g>
  </g>
</svg>
